<svg xmlns="http://www.w3.org/2000/svg" xmlns:xlink="http://www.w3.org/1999/xlink" aria-hidden="true" focusable="false" width="1em" height="1em" preserveAspectRatio="xMidYMid meet" viewBox="0 0 24 24" class="iconify" data-icon="eva:arrow-back-fill" data-inline="false" style="transform: rotate(360deg);color:#B2B2B2"><path fill="currentColor" d="M19 11H7.14l3.63-4.36a1 1 0 1 0-1.54-1.28l-5 6a1.19 1.19 0 0 0-.09.15c0 .05 0 .08-.07.13A1 1 0 0 0 4 12a1 1 0 0 0 .07.36c0 .05 0 .08.07.13a1.19 1.19 0 0 0 .09.15l5 6A1 1 0 0 0 10 19a1 1 0 0 0 .64-.23a1 1 0 0 0 .13-1.41L7.14 13H19a1 1 0 0 0 0-2z"></path></svg>